<svg width="20" height="17" viewBox="0 0 20 17" fill="none" xmlns="http://www.w3.org/2000/svg">
<path d="M13.0855 0.151367L16.0289 5.24987H19.1666V7.0832H18.0969L17.403 15.4093C17.3839 15.6383 17.2795 15.8519 17.1104 16.0076C16.9413 16.1633 16.7198 16.2497 16.49 16.2499H3.50998C3.28012 16.2497 3.0587 16.1633 2.8896 16.0076C2.7205 15.8519 2.61606 15.6383 2.59698 15.4093L1.90215 7.0832H0.833313V5.24987H3.97015L6.91448 0.151367L8.50215 1.06803L6.08765 5.24987H13.9114L11.4978 1.06803L13.0855 0.151367ZM16.2571 7.0832H3.7419L4.35331 14.4165H15.6457L16.2571 7.0832ZM10.9166 8.91653V12.5832H9.08331V8.91653H10.9166ZM7.24998 8.91653V12.5832H5.41665V8.91653H7.24998ZM14.5833 8.91653V12.5832H12.75V8.91653H14.5833Z" fill="#2D2D2D"/>
</svg>
