<svg width="20" height="18" viewBox="0 0 20 18" fill="none" xmlns="http://www.w3.org/2000/svg">
<path d="M10.0009 2.15156C12.1542 0.218315 15.4817 0.282482 17.5561 2.36057C19.6296 4.43957 19.7011 7.75057 17.7724 9.91023L9.99907 17.6946L2.22757 9.91023C0.298902 7.75057 0.371319 4.43407 2.4439 2.36057C4.52015 0.285232 7.84124 0.215565 10.0009 2.15156ZM16.2581 3.65582C14.8831 2.27898 12.6647 2.22307 11.2256 3.51557L10.0018 4.61373L8.77715 3.51648C7.3334 2.22215 5.11965 2.27898 3.74099 3.65765C2.37515 5.02348 2.3064 7.20973 3.56499 8.6544L9.99999 15.0995L16.435 8.65532C17.6945 7.20973 17.6257 5.02623 16.2581 3.65582Z" fill="#2D2D2D"/>
</svg>
