<svg width="18" height="21" viewBox="0 0 18 21" fill="none" xmlns="http://www.w3.org/2000/svg">
<path d="M9 20.7508L3.16634 14.9171C2.01256 13.7633 1.22684 12.2933 0.908518 10.693C0.590198 9.09261 0.753581 7.43382 1.37801 5.92633C2.00243 4.41885 3.05986 3.13038 4.41656 2.22386C5.77326 1.31735 7.36831 0.833496 9 0.833496C10.6317 0.833496 12.2267 1.31735 13.5834 2.22386C14.9401 3.13038 15.9976 4.41885 16.622 5.92633C17.2464 7.43382 17.4098 9.09261 17.0915 10.693C16.7732 12.2933 15.9874 13.7633 14.8337 14.9171L9 20.7508ZM13.5375 13.6209C14.4348 12.7235 15.0459 11.5802 15.2934 10.3355C15.541 9.09078 15.4138 7.80064 14.9282 6.62818C14.4425 5.45573 13.62 4.45362 12.5648 3.74858C11.5096 3.04354 10.2691 2.66722 9 2.66722C7.73093 2.66722 6.49036 3.04354 5.43516 3.74858C4.37996 4.45362 3.55752 5.45573 3.07184 6.62818C2.58616 7.80064 2.45905 9.09078 2.70658 10.3355C2.95412 11.5802 3.56518 12.7235 4.4625 13.6209L9 18.1584L13.5375 13.6209ZM9 10.9168C8.51377 10.9168 8.04746 10.7236 7.70364 10.3798C7.35982 10.036 7.16667 9.56965 7.16667 9.08342C7.16667 8.59719 7.35982 8.13088 7.70364 7.78706C8.04746 7.44325 8.51377 7.25009 9 7.25009C9.48623 7.25009 9.95255 7.44325 10.2964 7.78706C10.6402 8.13088 10.8333 8.59719 10.8333 9.08342C10.8333 9.56965 10.6402 10.036 10.2964 10.3798C9.95255 10.7236 9.48623 10.9168 9 10.9168Z" fill="#F99928"/>
</svg>
