<svg width="16" height="21" viewBox="0 0 16 21" fill="none" xmlns="http://www.w3.org/2000/svg">
<path d="M15.3334 20.1665H13.5V18.3332C13.5 17.6038 13.2103 16.9044 12.6946 16.3886C12.1788 15.8729 11.4794 15.5832 10.75 15.5832H5.25002C4.52067 15.5832 3.8212 15.8729 3.30548 16.3886C2.78975 16.9044 2.50002 17.6038 2.50002 18.3332V20.1665H0.666687V18.3332C0.666687 17.1176 1.14957 15.9518 2.00911 15.0923C2.86866 14.2327 4.03444 13.7498 5.25002 13.7498H10.75C11.9656 13.7498 13.1314 14.2327 13.9909 15.0923C14.8505 15.9518 15.3334 17.1176 15.3334 18.3332V20.1665ZM8.00002 11.9165C7.27775 11.9165 6.56255 11.7742 5.89526 11.4978C5.22797 11.2214 4.62165 10.8163 4.11093 10.3056C3.60021 9.79487 3.19508 9.18855 2.91868 8.52126C2.64228 7.85397 2.50002 7.13877 2.50002 6.4165C2.50002 5.69423 2.64228 4.97904 2.91868 4.31175C3.19508 3.64445 3.60021 3.03814 4.11093 2.52742C4.62165 2.01669 5.22797 1.61157 5.89526 1.33517C6.56255 1.05877 7.27775 0.916504 8.00002 0.916504C9.45871 0.916504 10.8577 1.49597 11.8891 2.52742C12.9206 3.55887 13.5 4.95781 13.5 6.4165C13.5 7.8752 12.9206 9.27414 11.8891 10.3056C10.8577 11.337 9.45871 11.9165 8.00002 11.9165ZM8.00002 10.0832C8.97248 10.0832 9.90511 9.69686 10.5927 9.00923C11.2804 8.3216 11.6667 7.38897 11.6667 6.4165C11.6667 5.44404 11.2804 4.51141 10.5927 3.82378C9.90511 3.13615 8.97248 2.74984 8.00002 2.74984C7.02756 2.74984 6.09493 3.13615 5.40729 3.82378C4.71966 4.51141 4.33335 5.44404 4.33335 6.4165C4.33335 7.38897 4.71966 8.3216 5.40729 9.00923C6.09493 9.69686 7.02756 10.0832 8.00002 10.0832Z" fill="#2D2D2D"/>
</svg>
