<svg width="20" height="20" viewBox="0 0 20 20" fill="none" xmlns="http://www.w3.org/2000/svg">
<path d="M9.08334 0.833496C13.6373 0.833496 17.3333 4.5295 17.3333 9.0835C17.3333 13.6375 13.6373 17.3335 9.08334 17.3335C4.52934 17.3335 0.833344 13.6375 0.833344 9.0835C0.833344 4.5295 4.52934 0.833496 9.08334 0.833496ZM9.08334 15.5002C12.6281 15.5002 15.5 12.6282 15.5 9.0835C15.5 5.53783 12.6281 2.66683 9.08334 2.66683C5.53768 2.66683 2.66668 5.53783 2.66668 9.0835C2.66668 12.6282 5.53768 15.5002 9.08334 15.5002ZM16.8613 15.5652L19.4545 18.1576L18.1574 19.4547L15.5651 16.8614L16.8613 15.5652Z" fill="#2D2D2D"/>
</svg>
